PathFileType	4	(X/Y/Z)	18_coords_data.trc
DataRate	CameraRate	NumFrames	NumMarkers	Units	OrigDataRate	OrigDataStartFrame	OrigNumFrames
30.0	30.0	8	21	m	30.0	45	66
Frame#	Time	THUMB_TIP	THUMB_IP	THUMB_MCP	THUMB_CMC	INDEX_TIP	INDEX_DIP	INDEX_PIP	INDEX_MCP	MIDDLE_TIP	MIDDLE_DIP	MIDDLE_PIP	MIDDLE_MCP	RING_TIP	RING_DIP	RING_PIP	RING_MCP	PINKY_TIP	PINKY_DIP	PINKY_PIP	PINKY_MCP	WRIST
X1	Y1	Z1	X2	Y2	Z2	X3	Y3	Z3	X4	Y4	Z4	X5	Y5	Z5	X6	Y6	Z6	X7	Y7	Z7	X8	Y8	Z8	X9	Y9	Z9	X10	Y10	Z10	X11	Y11	Z11	X12	Y12	Z12	X13	Y13	Z13	X14	Y14	Z14	X15	Y15	Z15	X16	Y16	Z16	X17	Y17	Z17	X18	Y18	Z18	X19	Y19	Z19	X20	Y20	Z20	X21	Y21	Z21
44	1.4666666666666666	0.04167010116577148	-0.0075709400177001954	0.92652197265625	0.025923200607299805	-0.0012510700225830068	0.9465830078125	0.007336349964141846	-0.0009035320281982421	0.970635986328125	-0.005402210235595703	0.020964399337768554	0.9903670043945313	0.0543583984375	0.02101840019226074	0.89585400390625	0.03328070068359375	0.019382299423217772	0.89689697265625	0.011152400016784667	0.01708009910583496	0.9033270263671875	-0.012860300064086914	0.013256400108337403	0.9324450073242188	0.05798780059814453	0.04698889923095703	0.8810689697265625	0.03668650054931641	0.04631230163574219	0.8887969970703125	0.011729299545288086	0.043632900238037106	0.900281005859375	-0.015455100059509277	0.03747119903564453	0.9303380126953125	0.05946670150756836	0.06075189971923828	0.8997360229492187	0.03959989929199219	0.06303239822387695	0.9047210083007813	0.015112099647521972	0.06361600112915039	0.913822998046875	-0.01142899990081787	0.05654470062255859	0.9384760131835937	0.054933799743652346	0.07772129821777343	0.9359940185546874	0.03727980041503906	0.07923149871826173	0.9372620239257813	0.01955669975280762	0.07847550201416016	0.940447998046875	-0.004342549800872802	0.07187039947509766	0.9516539916992187	-0.03093880081176758	0.04033390045166016	1.0063300170898437
45	1.5	0.04105179977416992	-0.0062777199745178225	0.9261370239257812	0.02519129943847656	-0.000245822995901107	0.9461409912109375	0.006638969898223877	-0.000186713993549346	0.9702169799804687	-0.0062281198501586916	0.021542900085449217	0.9902239990234375	0.05413560104370117	0.02195240020751953	0.8962069702148437	0.03304520034790039	0.02033419990539551	0.8970180053710938	0.010784600257873535	0.018044000625610353	0.9031900024414062	-0.013494999885559082	0.014105199813842773	0.931989990234375	0.058213199615478516	0.04783190155029297	0.8821500244140625	0.03679439926147461	0.04713529968261719	0.8892789916992188	0.011595499992370606	0.04454859924316406	0.9003989868164063	-0.01599269962310791	0.03833950042724609	0.930166015625	0.05959560012817383	0.06132820129394531	0.900947998046875	0.03957569885253906	0.06376739883422852	0.9056179809570313	0.014969900131225585	0.06439260101318359	0.9140490112304688	-0.012040599822998047	0.05735520172119141	0.938301025390625	0.05441439819335937	0.07798909759521484	0.936947021484375	0.03678409957885742	0.07961090087890625	0.9379669799804687	0.018939199447631835	0.07908450317382812	0.940572021484375	-0.0049572701454162595	0.07264610290527344	0.9515980224609375	-0.0318164005279541	0.04085020065307617	1.00627001953125
46	1.5333333333333334	0.04010490036010742	-0.0054299898147583	0.9255750122070312	0.02438789939880371	0.000280458986759185	0.94568701171875	0.00580866003036499	0.000141782999038696	0.9696680297851562	-0.006752999782562255	0.02177239990234375	0.98997802734375	0.05331769943237305	0.02242289924621582	0.8960479736328125	0.03222610092163086	0.02073780059814453	0.8970850219726563	0.0100487003326416	0.018427400588989257	0.90306201171875	-0.014156999588012696	0.01443560028076172	0.9319439697265625	0.05782109832763672	0.04798040008544922	0.8826129760742187	0.03639469909667969	0.047335899353027344	0.889510986328125	0.011	0.04486989974975586	0.9004429931640625	-0.016750600814819334	0.03872060012817383	0.9300369873046875	0.05888619995117188	0.06149850082397461	0.901697998046875	0.03890539932250976	0.06403040313720704	0.9056820068359375	0.014178799629211427	0.06480560302734376	0.91402099609375	-0.013143199920654297	0.05775199890136719	0.93818701171875	0.05323059844970703	0.07806099700927735	0.936593994140625	0.03562360000610352	0.07998090362548828	0.937280029296875	0.017794099807739258	0.07955979919433594	0.9400889892578125	-0.0063911499977111815	0.07310790252685546	0.9513179931640625	-0.0324385986328125	0.041094200134277344	1.006280029296875
47	1.5666666666666667	0.03883309936523437	-0.005049530029296875	0.9249190063476562	0.02321619987487793	0.000416891992092132	0.9451329956054687	0.004939710140228272	0.000203744992613792	0.9693820190429687	-0.007403810024261475	0.021871999740600587	0.9897940063476562	0.05248920059204101	0.02259239959716797	0.8957269897460938	0.03130030059814453	0.020974300384521485	0.8966090087890625	0.00910470962524414	0.01863949966430664	0.9029329833984375	-0.015203700065612794	0.014714699745178222	0.9321290283203125	0.05710480117797852	0.048013801574707034	0.8828259887695312	0.03564369964599609	0.04745199966430664	0.8893350219726562	0.01010540008544922	0.04500410079956055	0.9001840209960937	-0.017809499740600587	0.038922000885009765	0.9302109985351562	0.05792369842529297	0.061485000610351566	0.9015960083007812	0.03791360092163086	0.06408869934082032	0.9056209716796875	0.01323270034790039	0.0648905029296875	0.9136380004882813	-0.014241299629211425	0.05796220016479492	0.9381749877929687	0.05221379852294922	0.07778410339355468	0.9363800048828125	0.034602699279785154	0.07972840118408203	0.936989013671875	0.01657360076904297	0.07961620330810547	0.9394660034179687	-0.0075106902122497555	0.07339250183105468	0.9508619995117188	-0.03311899948120117	0.041254100799560545	1.005969970703125
48	1.6	0.03730059814453125	-0.004969880104064941	0.9238829956054687	0.022073699951171876	0.00032952401041984504	0.944208984375	0.004185279846191406	7.4544303119182e-05	0.9689630126953125	-0.008176039695739747	0.021705699920654298	0.98952099609375	0.051645301818847654	0.022611400604248048	0.8954000244140625	0.030458200454711915	0.021010499954223633	0.8962650146484376	0.008267939567565918	0.018736700057983398	0.9025590209960938	-0.01595180034637451	0.014667499542236328	0.9315780029296875	0.05658420181274414	0.04782270050048828	0.8829710083007812	0.03508300018310547	0.047368900299072265	0.8894080200195312	0.009551030158996582	0.04499150085449219	0.9000549926757813	-0.01860759925842285	0.038918201446533206	0.9297579956054688	0.0572864990234375	0.06131769943237304	0.90168701171875	0.03724259948730469	0.06399760055541992	0.9055999755859375	0.012539699554443359	0.06492250061035157	0.9136069946289063	-0.014934200286865235	0.058014400482177736	0.9380009765625	0.05136600112915039	0.07737740325927735	0.9363870239257812	0.033825000762939456	0.0795905990600586	0.9367490234375	0.015879799842834472	0.07958650207519531	0.93918798828125	-0.008263540267944337	0.07339910125732421	0.95072998046875	-0.03370019912719727	0.04117850112915039	1.005510009765625
49	1.6333333333333333	0.036042800903320314	-0.004919000148773193	0.9230050048828125	0.02081209945678711	8.0057598650455e-05	0.943708984375	0.0034137699604034418	-7.473710179328901e-05	0.9684940185546875	-0.008788069725036622	0.021400100708007814	0.989198974609375	0.05082289886474609	0.022483800888061522	0.894958984375	0.029656200408935546	0.02095680046081543	0.8957890014648437	0.0074577898979187015	0.01870560073852539	0.9023699951171875	-0.016581800460815428	0.01454829978942871	0.9311530151367188	0.05607320022583008	0.047615100860595706	0.8829970092773437	0.034602298736572265	0.047183101654052734	0.8892760009765625	0.008978969573974609	0.04487960052490234	0.8997410278320312	-0.019102699279785158	0.03879069900512695	0.929343017578125	0.056973098754882816	0.06100030136108398	0.9019840087890625	0.036863998413085936	0.06376269912719726	0.90572998046875	0.011940899848937989	0.06483300018310546	0.9134829711914062	-0.015627599716186522	0.057957401275634764	0.9377369995117187	0.050689701080322266	0.07698159790039062	0.9363359985351563	0.033165699005126954	0.07938619995117188	0.93652197265625	0.015162199974060058	0.0794001007080078	0.938927001953125	-0.008821789741516112	0.07332060241699219	0.950468994140625	-0.03418999862670898	0.04108829879760742	1.0055700073242186
50	1.6666666666666667	0.03518870162963867	-0.005120669841766358	0.9224329833984375	0.020154199600219726	-0.000216580003499984	0.9432319946289063	0.0025900700092315668	-0.00033342999219894404	0.9681400146484375	-0.00928913974761963	0.021135400772094727	0.988958984375	0.05005339813232422	0.022101499557495116	0.894322998046875	0.028949600219726562	0.020565000534057618	0.895156982421875	0.006690859794616699	0.01832099914550781	0.9017869873046875	-0.017145700454711914	0.014280300140380859	0.9312979736328125	0.05566540145874024	0.047196800231933594	0.8829000244140625	0.03411460113525391	0.046835899353027344	0.88902197265625	0.008280150413513184	0.04460049819946289	0.899344970703125	-0.019628999710083007	0.03851250076293945	0.9292739868164063	0.056367801666259765	0.06053219985961914	0.9017169799804687	0.036229198455810546	0.06339149856567383	0.905280029296875	0.011424699783325195	0.06443399810791016	0.9127750244140626	-0.0161781005859375	0.05759239959716797	0.9372550048828125	0.049887500762939456	0.0765281982421875	0.9356480102539062	0.032503501892089844	0.07916989898681641	0.93589599609375	0.014571000099182128	0.07925859832763672	0.9384509887695313	-0.009376059532165528	0.07304299926757812	0.9501019897460937	-0.03462120056152344	0.04075009918212891	1.0053099975585937
51	1.7	0.03452880096435547	-0.005464270114898682	0.9219990234375	0.01949239921569824	-0.00059339702129364	0.9428729858398438	0.002196850061416626	-0.000673956990242004	0.9679660034179688	-0.009773309707641602	0.020760900497436525	0.98852001953125	0.04953020095825195	0.021542299270629884	0.8941019897460938	0.028466699600219726	0.020036699295043946	0.8949580078125	0.006279630184173584	0.017796899795532225	0.9013369750976562	-0.017552299499511717	0.013663299560546875	0.930573974609375	0.055329299926757815	0.04643170166015625	0.882823974609375	0.03363719940185547	0.04619430160522461	0.8887830200195312	0.007978340148925782	0.04402989959716797	0.89914599609375	-0.02034280014038086	0.038039100646972655	0.9287369995117187	0.05605799865722656	0.05984469985961914	0.9015789794921875	0.03587490081787109	0.06280680084228515	0.90510498046875	0.011035200119018554	0.06384970092773437	0.9123079833984375	-0.016789600372314452	0.057220298767089846	0.9369840087890625	0.04924610137939453	0.07624330139160156	0.9350339965820312	0.03180019950866699	0.07884580230712891	0.9352329711914062	0.013889599800109863	0.07895780181884765	0.9377260131835937	-0.009993539810180665	0.07265070343017578	0.9495709838867188	-0.03507949829101562	0.04040510177612305	1.0049000244140625
